<mxfile host="Electron" agent="Mozilla/5.0 (Windows NT 10.0; Win64; x64) AppleWebKit/537.36 (KHTML, like Gecko) draw.io/28.0.4 Chrome/138.0.7204.97 Electron/37.2.1 Safari/537.36" version="28.0.4">
  <diagram name="Page-1" id="3ElGjIsbadfHMY-D0kVa">
    <mxGraphModel dx="758" dy="467" grid="1" gridSize="10" guides="1" tooltips="1" connect="1" arrows="1" fold="1" page="1" pageScale="1" pageWidth="1169" pageHeight="827" math="0" shadow="0">
      <root>
        <mxCell id="0" />
        <mxCell id="1" parent="0" />
        <mxCell id="8AV7zO76IVfP4mI7Q1g9-1" value="&lt;font&gt;&lt;b&gt;Sales Data Mart&lt;/b&gt;&lt;/font&gt; &lt;font style=&quot;font-size: 20px;&quot;&gt;(Star Schema)&lt;/font&gt;" style="text;html=1;align=center;verticalAlign=middle;whiteSpace=wrap;rounded=0;fontSize=36;" parent="1" vertex="1">
          <mxGeometry x="20" y="20" width="440" height="30" as="geometry" />
        </mxCell>
        <mxCell id="8AV7zO76IVfP4mI7Q1g9-12" value="gold.dim_customers" style="shape=table;startSize=40;container=1;collapsible=1;childLayout=tableLayout;fixedRows=1;rowLines=0;fontStyle=1;align=center;resizeLast=1;html=1;rounded=1;fillColor=#fff2cc;strokeColor=#d6b656;fontSize=16;" parent="1" vertex="1">
          <mxGeometry x="160" y="110" width="200" height="430" as="geometry" />
        </mxCell>
        <mxCell id="8AV7zO76IVfP4mI7Q1g9-13" value="" style="shape=tableRow;horizontal=0;startSize=0;swimlaneHead=0;swimlaneBody=0;fillColor=none;collapsible=0;dropTarget=0;points=[[0,0.5],[1,0.5]];portConstraint=eastwest;top=0;left=0;right=0;bottom=1;fontSize=16;" parent="8AV7zO76IVfP4mI7Q1g9-12" vertex="1">
          <mxGeometry y="40" width="200" height="39" as="geometry" />
        </mxCell>
        <mxCell id="8AV7zO76IVfP4mI7Q1g9-14" value="PK" style="shape=partialRectangle;connectable=0;fillColor=none;top=0;left=0;bottom=0;right=0;fontStyle=1;overflow=hidden;whiteSpace=wrap;html=1;fontSize=16;" parent="8AV7zO76IVfP4mI7Q1g9-13" vertex="1">
          <mxGeometry width="30" height="39" as="geometry">
            <mxRectangle width="30" height="39" as="alternateBounds" />
          </mxGeometry>
        </mxCell>
        <mxCell id="8AV7zO76IVfP4mI7Q1g9-15" value="customer_key" style="shape=partialRectangle;connectable=0;fillColor=none;top=0;left=0;bottom=0;right=0;align=left;spacingLeft=6;fontStyle=5;overflow=hidden;whiteSpace=wrap;html=1;fontSize=16;" parent="8AV7zO76IVfP4mI7Q1g9-13" vertex="1">
          <mxGeometry x="30" width="170" height="39" as="geometry">
            <mxRectangle width="170" height="39" as="alternateBounds" />
          </mxGeometry>
        </mxCell>
        <mxCell id="8AV7zO76IVfP4mI7Q1g9-16" value="" style="shape=tableRow;horizontal=0;startSize=0;swimlaneHead=0;swimlaneBody=0;fillColor=none;collapsible=0;dropTarget=0;points=[[0,0.5],[1,0.5]];portConstraint=eastwest;top=0;left=0;right=0;bottom=0;fontSize=16;" parent="8AV7zO76IVfP4mI7Q1g9-12" vertex="1">
          <mxGeometry y="79" width="200" height="39" as="geometry" />
        </mxCell>
        <mxCell id="8AV7zO76IVfP4mI7Q1g9-17" value="" style="shape=partialRectangle;connectable=0;fillColor=none;top=0;left=0;bottom=0;right=0;editable=1;overflow=hidden;whiteSpace=wrap;html=1;fontSize=16;" parent="8AV7zO76IVfP4mI7Q1g9-16" vertex="1">
          <mxGeometry width="30" height="39" as="geometry">
            <mxRectangle width="30" height="39" as="alternateBounds" />
          </mxGeometry>
        </mxCell>
        <mxCell id="8AV7zO76IVfP4mI7Q1g9-18" value="customer_id" style="shape=partialRectangle;connectable=0;fillColor=none;top=0;left=0;bottom=0;right=0;align=left;spacingLeft=6;overflow=hidden;whiteSpace=wrap;html=1;fontSize=16;" parent="8AV7zO76IVfP4mI7Q1g9-16" vertex="1">
          <mxGeometry x="30" width="170" height="39" as="geometry">
            <mxRectangle width="170" height="39" as="alternateBounds" />
          </mxGeometry>
        </mxCell>
        <mxCell id="8AV7zO76IVfP4mI7Q1g9-19" value="" style="shape=tableRow;horizontal=0;startSize=0;swimlaneHead=0;swimlaneBody=0;fillColor=none;collapsible=0;dropTarget=0;points=[[0,0.5],[1,0.5]];portConstraint=eastwest;top=0;left=0;right=0;bottom=0;fontSize=16;" parent="8AV7zO76IVfP4mI7Q1g9-12" vertex="1">
          <mxGeometry y="118" width="200" height="39" as="geometry" />
        </mxCell>
        <mxCell id="8AV7zO76IVfP4mI7Q1g9-20" value="" style="shape=partialRectangle;connectable=0;fillColor=none;top=0;left=0;bottom=0;right=0;editable=1;overflow=hidden;whiteSpace=wrap;html=1;fontSize=16;" parent="8AV7zO76IVfP4mI7Q1g9-19" vertex="1">
          <mxGeometry width="30" height="39" as="geometry">
            <mxRectangle width="30" height="39" as="alternateBounds" />
          </mxGeometry>
        </mxCell>
        <mxCell id="8AV7zO76IVfP4mI7Q1g9-21" value="customer_number" style="shape=partialRectangle;connectable=0;fillColor=none;top=0;left=0;bottom=0;right=0;align=left;spacingLeft=6;overflow=hidden;whiteSpace=wrap;html=1;fontSize=16;" parent="8AV7zO76IVfP4mI7Q1g9-19" vertex="1">
          <mxGeometry x="30" width="170" height="39" as="geometry">
            <mxRectangle width="170" height="39" as="alternateBounds" />
          </mxGeometry>
        </mxCell>
        <mxCell id="8AV7zO76IVfP4mI7Q1g9-22" value="" style="shape=tableRow;horizontal=0;startSize=0;swimlaneHead=0;swimlaneBody=0;fillColor=none;collapsible=0;dropTarget=0;points=[[0,0.5],[1,0.5]];portConstraint=eastwest;top=0;left=0;right=0;bottom=0;fontSize=16;" parent="8AV7zO76IVfP4mI7Q1g9-12" vertex="1">
          <mxGeometry y="157" width="200" height="39" as="geometry" />
        </mxCell>
        <mxCell id="8AV7zO76IVfP4mI7Q1g9-23" value="" style="shape=partialRectangle;connectable=0;fillColor=none;top=0;left=0;bottom=0;right=0;editable=1;overflow=hidden;whiteSpace=wrap;html=1;fontSize=16;" parent="8AV7zO76IVfP4mI7Q1g9-22" vertex="1">
          <mxGeometry width="30" height="39" as="geometry">
            <mxRectangle width="30" height="39" as="alternateBounds" />
          </mxGeometry>
        </mxCell>
        <mxCell id="8AV7zO76IVfP4mI7Q1g9-24" value="first_name" style="shape=partialRectangle;connectable=0;fillColor=none;top=0;left=0;bottom=0;right=0;align=left;spacingLeft=6;overflow=hidden;whiteSpace=wrap;html=1;fontSize=16;" parent="8AV7zO76IVfP4mI7Q1g9-22" vertex="1">
          <mxGeometry x="30" width="170" height="39" as="geometry">
            <mxRectangle width="170" height="39" as="alternateBounds" />
          </mxGeometry>
        </mxCell>
        <mxCell id="8AV7zO76IVfP4mI7Q1g9-25" style="shape=tableRow;horizontal=0;startSize=0;swimlaneHead=0;swimlaneBody=0;fillColor=none;collapsible=0;dropTarget=0;points=[[0,0.5],[1,0.5]];portConstraint=eastwest;top=0;left=0;right=0;bottom=0;fontSize=16;" parent="8AV7zO76IVfP4mI7Q1g9-12" vertex="1">
          <mxGeometry y="196" width="200" height="39" as="geometry" />
        </mxCell>
        <mxCell id="8AV7zO76IVfP4mI7Q1g9-26" style="shape=partialRectangle;connectable=0;fillColor=none;top=0;left=0;bottom=0;right=0;editable=1;overflow=hidden;whiteSpace=wrap;html=1;fontSize=16;" parent="8AV7zO76IVfP4mI7Q1g9-25" vertex="1">
          <mxGeometry width="30" height="39" as="geometry">
            <mxRectangle width="30" height="39" as="alternateBounds" />
          </mxGeometry>
        </mxCell>
        <mxCell id="8AV7zO76IVfP4mI7Q1g9-27" value="last_name" style="shape=partialRectangle;connectable=0;fillColor=none;top=0;left=0;bottom=0;right=0;align=left;spacingLeft=6;overflow=hidden;whiteSpace=wrap;html=1;fontSize=16;" parent="8AV7zO76IVfP4mI7Q1g9-25" vertex="1">
          <mxGeometry x="30" width="170" height="39" as="geometry">
            <mxRectangle width="170" height="39" as="alternateBounds" />
          </mxGeometry>
        </mxCell>
        <mxCell id="8AV7zO76IVfP4mI7Q1g9-28" style="shape=tableRow;horizontal=0;startSize=0;swimlaneHead=0;swimlaneBody=0;fillColor=none;collapsible=0;dropTarget=0;points=[[0,0.5],[1,0.5]];portConstraint=eastwest;top=0;left=0;right=0;bottom=0;fontSize=16;" parent="8AV7zO76IVfP4mI7Q1g9-12" vertex="1">
          <mxGeometry y="235" width="200" height="39" as="geometry" />
        </mxCell>
        <mxCell id="8AV7zO76IVfP4mI7Q1g9-29" style="shape=partialRectangle;connectable=0;fillColor=none;top=0;left=0;bottom=0;right=0;editable=1;overflow=hidden;whiteSpace=wrap;html=1;fontSize=16;" parent="8AV7zO76IVfP4mI7Q1g9-28" vertex="1">
          <mxGeometry width="30" height="39" as="geometry">
            <mxRectangle width="30" height="39" as="alternateBounds" />
          </mxGeometry>
        </mxCell>
        <mxCell id="8AV7zO76IVfP4mI7Q1g9-30" value="country" style="shape=partialRectangle;connectable=0;fillColor=none;top=0;left=0;bottom=0;right=0;align=left;spacingLeft=6;overflow=hidden;whiteSpace=wrap;html=1;fontSize=16;" parent="8AV7zO76IVfP4mI7Q1g9-28" vertex="1">
          <mxGeometry x="30" width="170" height="39" as="geometry">
            <mxRectangle width="170" height="39" as="alternateBounds" />
          </mxGeometry>
        </mxCell>
        <mxCell id="8AV7zO76IVfP4mI7Q1g9-31" style="shape=tableRow;horizontal=0;startSize=0;swimlaneHead=0;swimlaneBody=0;fillColor=none;collapsible=0;dropTarget=0;points=[[0,0.5],[1,0.5]];portConstraint=eastwest;top=0;left=0;right=0;bottom=0;fontSize=16;" parent="8AV7zO76IVfP4mI7Q1g9-12" vertex="1">
          <mxGeometry y="274" width="200" height="39" as="geometry" />
        </mxCell>
        <mxCell id="8AV7zO76IVfP4mI7Q1g9-32" style="shape=partialRectangle;connectable=0;fillColor=none;top=0;left=0;bottom=0;right=0;editable=1;overflow=hidden;whiteSpace=wrap;html=1;fontSize=16;" parent="8AV7zO76IVfP4mI7Q1g9-31" vertex="1">
          <mxGeometry width="30" height="39" as="geometry">
            <mxRectangle width="30" height="39" as="alternateBounds" />
          </mxGeometry>
        </mxCell>
        <mxCell id="8AV7zO76IVfP4mI7Q1g9-33" value="marital_status" style="shape=partialRectangle;connectable=0;fillColor=none;top=0;left=0;bottom=0;right=0;align=left;spacingLeft=6;overflow=hidden;whiteSpace=wrap;html=1;fontSize=16;" parent="8AV7zO76IVfP4mI7Q1g9-31" vertex="1">
          <mxGeometry x="30" width="170" height="39" as="geometry">
            <mxRectangle width="170" height="39" as="alternateBounds" />
          </mxGeometry>
        </mxCell>
        <mxCell id="8AV7zO76IVfP4mI7Q1g9-34" style="shape=tableRow;horizontal=0;startSize=0;swimlaneHead=0;swimlaneBody=0;fillColor=none;collapsible=0;dropTarget=0;points=[[0,0.5],[1,0.5]];portConstraint=eastwest;top=0;left=0;right=0;bottom=0;fontSize=16;" parent="8AV7zO76IVfP4mI7Q1g9-12" vertex="1">
          <mxGeometry y="313" width="200" height="39" as="geometry" />
        </mxCell>
        <mxCell id="8AV7zO76IVfP4mI7Q1g9-35" style="shape=partialRectangle;connectable=0;fillColor=none;top=0;left=0;bottom=0;right=0;editable=1;overflow=hidden;whiteSpace=wrap;html=1;fontSize=16;" parent="8AV7zO76IVfP4mI7Q1g9-34" vertex="1">
          <mxGeometry width="30" height="39" as="geometry">
            <mxRectangle width="30" height="39" as="alternateBounds" />
          </mxGeometry>
        </mxCell>
        <mxCell id="8AV7zO76IVfP4mI7Q1g9-36" value="gender" style="shape=partialRectangle;connectable=0;fillColor=none;top=0;left=0;bottom=0;right=0;align=left;spacingLeft=6;overflow=hidden;whiteSpace=wrap;html=1;fontSize=16;" parent="8AV7zO76IVfP4mI7Q1g9-34" vertex="1">
          <mxGeometry x="30" width="170" height="39" as="geometry">
            <mxRectangle width="170" height="39" as="alternateBounds" />
          </mxGeometry>
        </mxCell>
        <mxCell id="8AV7zO76IVfP4mI7Q1g9-37" style="shape=tableRow;horizontal=0;startSize=0;swimlaneHead=0;swimlaneBody=0;fillColor=none;collapsible=0;dropTarget=0;points=[[0,0.5],[1,0.5]];portConstraint=eastwest;top=0;left=0;right=0;bottom=0;fontSize=16;" parent="8AV7zO76IVfP4mI7Q1g9-12" vertex="1">
          <mxGeometry y="352" width="200" height="39" as="geometry" />
        </mxCell>
        <mxCell id="8AV7zO76IVfP4mI7Q1g9-38" style="shape=partialRectangle;connectable=0;fillColor=none;top=0;left=0;bottom=0;right=0;editable=1;overflow=hidden;whiteSpace=wrap;html=1;fontSize=16;" parent="8AV7zO76IVfP4mI7Q1g9-37" vertex="1">
          <mxGeometry width="30" height="39" as="geometry">
            <mxRectangle width="30" height="39" as="alternateBounds" />
          </mxGeometry>
        </mxCell>
        <mxCell id="8AV7zO76IVfP4mI7Q1g9-39" value="birthdate" style="shape=partialRectangle;connectable=0;fillColor=none;top=0;left=0;bottom=0;right=0;align=left;spacingLeft=6;overflow=hidden;whiteSpace=wrap;html=1;fontSize=16;" parent="8AV7zO76IVfP4mI7Q1g9-37" vertex="1">
          <mxGeometry x="30" width="170" height="39" as="geometry">
            <mxRectangle width="170" height="39" as="alternateBounds" />
          </mxGeometry>
        </mxCell>
        <mxCell id="8AV7zO76IVfP4mI7Q1g9-40" style="shape=tableRow;horizontal=0;startSize=0;swimlaneHead=0;swimlaneBody=0;fillColor=none;collapsible=0;dropTarget=0;points=[[0,0.5],[1,0.5]];portConstraint=eastwest;top=0;left=0;right=0;bottom=0;fontSize=16;" parent="8AV7zO76IVfP4mI7Q1g9-12" vertex="1">
          <mxGeometry y="391" width="200" height="39" as="geometry" />
        </mxCell>
        <mxCell id="8AV7zO76IVfP4mI7Q1g9-41" style="shape=partialRectangle;connectable=0;fillColor=none;top=0;left=0;bottom=0;right=0;editable=1;overflow=hidden;whiteSpace=wrap;html=1;fontSize=16;" parent="8AV7zO76IVfP4mI7Q1g9-40" vertex="1">
          <mxGeometry width="30" height="39" as="geometry">
            <mxRectangle width="30" height="39" as="alternateBounds" />
          </mxGeometry>
        </mxCell>
        <mxCell id="8AV7zO76IVfP4mI7Q1g9-42" value="create_date" style="shape=partialRectangle;connectable=0;fillColor=none;top=0;left=0;bottom=0;right=0;align=left;spacingLeft=6;overflow=hidden;whiteSpace=wrap;html=1;fontSize=16;" parent="8AV7zO76IVfP4mI7Q1g9-40" vertex="1">
          <mxGeometry x="30" width="170" height="39" as="geometry">
            <mxRectangle width="170" height="39" as="alternateBounds" />
          </mxGeometry>
        </mxCell>
        <mxCell id="8AV7zO76IVfP4mI7Q1g9-43" value="gold.fact_sales" style="shape=table;startSize=40;container=1;collapsible=1;childLayout=tableLayout;fixedRows=1;rowLines=0;fontStyle=1;align=center;resizeLast=1;html=1;rounded=1;fillColor=#dae8fc;strokeColor=#6c8ebf;fontSize=16;" parent="1" vertex="1">
          <mxGeometry x="500" y="110" width="200" height="391" as="geometry" />
        </mxCell>
        <mxCell id="8AV7zO76IVfP4mI7Q1g9-47" value="" style="shape=tableRow;horizontal=0;startSize=0;swimlaneHead=0;swimlaneBody=0;fillColor=none;collapsible=0;dropTarget=0;points=[[0,0.5],[1,0.5]];portConstraint=eastwest;top=0;left=0;right=0;bottom=0;fontSize=16;" parent="8AV7zO76IVfP4mI7Q1g9-43" vertex="1">
          <mxGeometry y="40" width="200" height="39" as="geometry" />
        </mxCell>
        <mxCell id="8AV7zO76IVfP4mI7Q1g9-48" value="" style="shape=partialRectangle;connectable=0;fillColor=none;top=0;left=0;bottom=0;right=0;editable=1;overflow=hidden;whiteSpace=wrap;html=1;fontSize=16;" parent="8AV7zO76IVfP4mI7Q1g9-47" vertex="1">
          <mxGeometry width="40.00000000000023" height="39" as="geometry">
            <mxRectangle width="40.00000000000023" height="39" as="alternateBounds" />
          </mxGeometry>
        </mxCell>
        <mxCell id="8AV7zO76IVfP4mI7Q1g9-49" value="order_number" style="shape=partialRectangle;connectable=0;fillColor=none;top=0;left=0;bottom=0;right=0;align=left;spacingLeft=6;overflow=hidden;whiteSpace=wrap;html=1;fontSize=16;" parent="8AV7zO76IVfP4mI7Q1g9-47" vertex="1">
          <mxGeometry x="40.00000000000023" width="159.99999999999977" height="39" as="geometry">
            <mxRectangle width="159.99999999999977" height="39" as="alternateBounds" />
          </mxGeometry>
        </mxCell>
        <mxCell id="8AV7zO76IVfP4mI7Q1g9-50" value="" style="shape=tableRow;horizontal=0;startSize=0;swimlaneHead=0;swimlaneBody=0;fillColor=none;collapsible=0;dropTarget=0;points=[[0,0.5],[1,0.5]];portConstraint=eastwest;top=0;left=0;right=0;bottom=0;fontSize=16;" parent="8AV7zO76IVfP4mI7Q1g9-43" vertex="1">
          <mxGeometry y="79" width="200" height="39" as="geometry" />
        </mxCell>
        <mxCell id="8AV7zO76IVfP4mI7Q1g9-51" value="&lt;b&gt;FK1&lt;/b&gt;" style="shape=partialRectangle;connectable=0;fillColor=none;top=0;left=0;bottom=0;right=0;editable=1;overflow=hidden;whiteSpace=wrap;html=1;fontSize=16;" parent="8AV7zO76IVfP4mI7Q1g9-50" vertex="1">
          <mxGeometry width="40.00000000000023" height="39" as="geometry">
            <mxRectangle width="40.00000000000023" height="39" as="alternateBounds" />
          </mxGeometry>
        </mxCell>
        <mxCell id="8AV7zO76IVfP4mI7Q1g9-52" value="product_key" style="shape=partialRectangle;connectable=0;fillColor=none;top=0;left=0;bottom=0;right=0;align=left;spacingLeft=6;overflow=hidden;whiteSpace=wrap;html=1;fontSize=16;" parent="8AV7zO76IVfP4mI7Q1g9-50" vertex="1">
          <mxGeometry x="40.00000000000023" width="159.99999999999977" height="39" as="geometry">
            <mxRectangle width="159.99999999999977" height="39" as="alternateBounds" />
          </mxGeometry>
        </mxCell>
        <mxCell id="8AV7zO76IVfP4mI7Q1g9-53" value="" style="shape=tableRow;horizontal=0;startSize=0;swimlaneHead=0;swimlaneBody=0;fillColor=none;collapsible=0;dropTarget=0;points=[[0,0.5],[1,0.5]];portConstraint=eastwest;top=0;left=0;right=0;bottom=0;fontSize=16;" parent="8AV7zO76IVfP4mI7Q1g9-43" vertex="1">
          <mxGeometry y="118" width="200" height="39" as="geometry" />
        </mxCell>
        <mxCell id="8AV7zO76IVfP4mI7Q1g9-54" value="&lt;b&gt;FK2&lt;/b&gt;" style="shape=partialRectangle;connectable=0;fillColor=none;top=0;left=0;bottom=0;right=0;editable=1;overflow=hidden;whiteSpace=wrap;html=1;fontSize=16;" parent="8AV7zO76IVfP4mI7Q1g9-53" vertex="1">
          <mxGeometry width="40.00000000000023" height="39" as="geometry">
            <mxRectangle width="40.00000000000023" height="39" as="alternateBounds" />
          </mxGeometry>
        </mxCell>
        <mxCell id="8AV7zO76IVfP4mI7Q1g9-55" value="customer_key" style="shape=partialRectangle;connectable=0;fillColor=none;top=0;left=0;bottom=0;right=0;align=left;spacingLeft=6;overflow=hidden;whiteSpace=wrap;html=1;fontSize=16;" parent="8AV7zO76IVfP4mI7Q1g9-53" vertex="1">
          <mxGeometry x="40.00000000000023" width="159.99999999999977" height="39" as="geometry">
            <mxRectangle width="159.99999999999977" height="39" as="alternateBounds" />
          </mxGeometry>
        </mxCell>
        <mxCell id="8AV7zO76IVfP4mI7Q1g9-56" style="shape=tableRow;horizontal=0;startSize=0;swimlaneHead=0;swimlaneBody=0;fillColor=none;collapsible=0;dropTarget=0;points=[[0,0.5],[1,0.5]];portConstraint=eastwest;top=0;left=0;right=0;bottom=0;fontSize=16;" parent="8AV7zO76IVfP4mI7Q1g9-43" vertex="1">
          <mxGeometry y="157" width="200" height="39" as="geometry" />
        </mxCell>
        <mxCell id="8AV7zO76IVfP4mI7Q1g9-57" style="shape=partialRectangle;connectable=0;fillColor=none;top=0;left=0;bottom=0;right=0;editable=1;overflow=hidden;whiteSpace=wrap;html=1;fontSize=16;" parent="8AV7zO76IVfP4mI7Q1g9-56" vertex="1">
          <mxGeometry width="40.00000000000023" height="39" as="geometry">
            <mxRectangle width="40.00000000000023" height="39" as="alternateBounds" />
          </mxGeometry>
        </mxCell>
        <mxCell id="8AV7zO76IVfP4mI7Q1g9-58" value="order_date" style="shape=partialRectangle;connectable=0;fillColor=none;top=0;left=0;bottom=0;right=0;align=left;spacingLeft=6;overflow=hidden;whiteSpace=wrap;html=1;fontSize=16;" parent="8AV7zO76IVfP4mI7Q1g9-56" vertex="1">
          <mxGeometry x="40.00000000000023" width="159.99999999999977" height="39" as="geometry">
            <mxRectangle width="159.99999999999977" height="39" as="alternateBounds" />
          </mxGeometry>
        </mxCell>
        <mxCell id="8AV7zO76IVfP4mI7Q1g9-59" style="shape=tableRow;horizontal=0;startSize=0;swimlaneHead=0;swimlaneBody=0;fillColor=none;collapsible=0;dropTarget=0;points=[[0,0.5],[1,0.5]];portConstraint=eastwest;top=0;left=0;right=0;bottom=0;fontSize=16;" parent="8AV7zO76IVfP4mI7Q1g9-43" vertex="1">
          <mxGeometry y="196" width="200" height="39" as="geometry" />
        </mxCell>
        <mxCell id="8AV7zO76IVfP4mI7Q1g9-60" style="shape=partialRectangle;connectable=0;fillColor=none;top=0;left=0;bottom=0;right=0;editable=1;overflow=hidden;whiteSpace=wrap;html=1;fontSize=16;" parent="8AV7zO76IVfP4mI7Q1g9-59" vertex="1">
          <mxGeometry width="40.00000000000023" height="39" as="geometry">
            <mxRectangle width="40.00000000000023" height="39" as="alternateBounds" />
          </mxGeometry>
        </mxCell>
        <mxCell id="8AV7zO76IVfP4mI7Q1g9-61" value="shipping_date" style="shape=partialRectangle;connectable=0;fillColor=none;top=0;left=0;bottom=0;right=0;align=left;spacingLeft=6;overflow=hidden;whiteSpace=wrap;html=1;fontSize=16;" parent="8AV7zO76IVfP4mI7Q1g9-59" vertex="1">
          <mxGeometry x="40.00000000000023" width="159.99999999999977" height="39" as="geometry">
            <mxRectangle width="159.99999999999977" height="39" as="alternateBounds" />
          </mxGeometry>
        </mxCell>
        <mxCell id="8AV7zO76IVfP4mI7Q1g9-62" style="shape=tableRow;horizontal=0;startSize=0;swimlaneHead=0;swimlaneBody=0;fillColor=none;collapsible=0;dropTarget=0;points=[[0,0.5],[1,0.5]];portConstraint=eastwest;top=0;left=0;right=0;bottom=0;fontSize=16;" parent="8AV7zO76IVfP4mI7Q1g9-43" vertex="1">
          <mxGeometry y="235" width="200" height="39" as="geometry" />
        </mxCell>
        <mxCell id="8AV7zO76IVfP4mI7Q1g9-63" style="shape=partialRectangle;connectable=0;fillColor=none;top=0;left=0;bottom=0;right=0;editable=1;overflow=hidden;whiteSpace=wrap;html=1;fontSize=16;" parent="8AV7zO76IVfP4mI7Q1g9-62" vertex="1">
          <mxGeometry width="40.00000000000023" height="39" as="geometry">
            <mxRectangle width="40.00000000000023" height="39" as="alternateBounds" />
          </mxGeometry>
        </mxCell>
        <mxCell id="8AV7zO76IVfP4mI7Q1g9-64" value="due_date" style="shape=partialRectangle;connectable=0;fillColor=none;top=0;left=0;bottom=0;right=0;align=left;spacingLeft=6;overflow=hidden;whiteSpace=wrap;html=1;fontSize=16;" parent="8AV7zO76IVfP4mI7Q1g9-62" vertex="1">
          <mxGeometry x="40.00000000000023" width="159.99999999999977" height="39" as="geometry">
            <mxRectangle width="159.99999999999977" height="39" as="alternateBounds" />
          </mxGeometry>
        </mxCell>
        <mxCell id="8AV7zO76IVfP4mI7Q1g9-65" style="shape=tableRow;horizontal=0;startSize=0;swimlaneHead=0;swimlaneBody=0;fillColor=none;collapsible=0;dropTarget=0;points=[[0,0.5],[1,0.5]];portConstraint=eastwest;top=0;left=0;right=0;bottom=0;fontSize=16;" parent="8AV7zO76IVfP4mI7Q1g9-43" vertex="1">
          <mxGeometry y="274" width="200" height="39" as="geometry" />
        </mxCell>
        <mxCell id="8AV7zO76IVfP4mI7Q1g9-66" style="shape=partialRectangle;connectable=0;fillColor=none;top=0;left=0;bottom=0;right=0;editable=1;overflow=hidden;whiteSpace=wrap;html=1;fontSize=16;" parent="8AV7zO76IVfP4mI7Q1g9-65" vertex="1">
          <mxGeometry width="40.00000000000023" height="39" as="geometry">
            <mxRectangle width="40.00000000000023" height="39" as="alternateBounds" />
          </mxGeometry>
        </mxCell>
        <mxCell id="8AV7zO76IVfP4mI7Q1g9-67" value="sales_amount" style="shape=partialRectangle;connectable=0;fillColor=none;top=0;left=0;bottom=0;right=0;align=left;spacingLeft=6;overflow=hidden;whiteSpace=wrap;html=1;fontSize=16;" parent="8AV7zO76IVfP4mI7Q1g9-65" vertex="1">
          <mxGeometry x="40.00000000000023" width="159.99999999999977" height="39" as="geometry">
            <mxRectangle width="159.99999999999977" height="39" as="alternateBounds" />
          </mxGeometry>
        </mxCell>
        <mxCell id="8AV7zO76IVfP4mI7Q1g9-68" style="shape=tableRow;horizontal=0;startSize=0;swimlaneHead=0;swimlaneBody=0;fillColor=none;collapsible=0;dropTarget=0;points=[[0,0.5],[1,0.5]];portConstraint=eastwest;top=0;left=0;right=0;bottom=0;fontSize=16;" parent="8AV7zO76IVfP4mI7Q1g9-43" vertex="1">
          <mxGeometry y="313" width="200" height="39" as="geometry" />
        </mxCell>
        <mxCell id="8AV7zO76IVfP4mI7Q1g9-69" style="shape=partialRectangle;connectable=0;fillColor=none;top=0;left=0;bottom=0;right=0;editable=1;overflow=hidden;whiteSpace=wrap;html=1;fontSize=16;" parent="8AV7zO76IVfP4mI7Q1g9-68" vertex="1">
          <mxGeometry width="40.00000000000023" height="39" as="geometry">
            <mxRectangle width="40.00000000000023" height="39" as="alternateBounds" />
          </mxGeometry>
        </mxCell>
        <mxCell id="8AV7zO76IVfP4mI7Q1g9-70" value="quantity" style="shape=partialRectangle;connectable=0;fillColor=none;top=0;left=0;bottom=0;right=0;align=left;spacingLeft=6;overflow=hidden;whiteSpace=wrap;html=1;fontSize=16;" parent="8AV7zO76IVfP4mI7Q1g9-68" vertex="1">
          <mxGeometry x="40.00000000000023" width="159.99999999999977" height="39" as="geometry">
            <mxRectangle width="159.99999999999977" height="39" as="alternateBounds" />
          </mxGeometry>
        </mxCell>
        <mxCell id="8AV7zO76IVfP4mI7Q1g9-71" style="shape=tableRow;horizontal=0;startSize=0;swimlaneHead=0;swimlaneBody=0;fillColor=none;collapsible=0;dropTarget=0;points=[[0,0.5],[1,0.5]];portConstraint=eastwest;top=0;left=0;right=0;bottom=0;fontSize=16;" parent="8AV7zO76IVfP4mI7Q1g9-43" vertex="1">
          <mxGeometry y="352" width="200" height="39" as="geometry" />
        </mxCell>
        <mxCell id="8AV7zO76IVfP4mI7Q1g9-72" style="shape=partialRectangle;connectable=0;fillColor=none;top=0;left=0;bottom=0;right=0;editable=1;overflow=hidden;whiteSpace=wrap;html=1;fontSize=16;" parent="8AV7zO76IVfP4mI7Q1g9-71" vertex="1">
          <mxGeometry width="40.00000000000023" height="39" as="geometry">
            <mxRectangle width="40.00000000000023" height="39" as="alternateBounds" />
          </mxGeometry>
        </mxCell>
        <mxCell id="8AV7zO76IVfP4mI7Q1g9-73" value="price" style="shape=partialRectangle;connectable=0;fillColor=none;top=0;left=0;bottom=0;right=0;align=left;spacingLeft=6;overflow=hidden;whiteSpace=wrap;html=1;fontSize=16;" parent="8AV7zO76IVfP4mI7Q1g9-71" vertex="1">
          <mxGeometry x="40.00000000000023" width="159.99999999999977" height="39" as="geometry">
            <mxRectangle width="159.99999999999977" height="39" as="alternateBounds" />
          </mxGeometry>
        </mxCell>
        <mxCell id="8AV7zO76IVfP4mI7Q1g9-77" value="gold.dim_products" style="shape=table;startSize=40;container=1;collapsible=1;childLayout=tableLayout;fixedRows=1;rowLines=0;fontStyle=1;align=center;resizeLast=1;html=1;rounded=1;fillColor=#fff2cc;strokeColor=#d6b656;fontSize=16;" parent="1" vertex="1">
          <mxGeometry x="830" y="110" width="200" height="469" as="geometry" />
        </mxCell>
        <mxCell id="8AV7zO76IVfP4mI7Q1g9-78" value="" style="shape=tableRow;horizontal=0;startSize=0;swimlaneHead=0;swimlaneBody=0;fillColor=none;collapsible=0;dropTarget=0;points=[[0,0.5],[1,0.5]];portConstraint=eastwest;top=0;left=0;right=0;bottom=1;fontSize=16;" parent="8AV7zO76IVfP4mI7Q1g9-77" vertex="1">
          <mxGeometry y="40" width="200" height="39" as="geometry" />
        </mxCell>
        <mxCell id="8AV7zO76IVfP4mI7Q1g9-79" value="PK" style="shape=partialRectangle;connectable=0;fillColor=none;top=0;left=0;bottom=0;right=0;fontStyle=1;overflow=hidden;whiteSpace=wrap;html=1;fontSize=16;" parent="8AV7zO76IVfP4mI7Q1g9-78" vertex="1">
          <mxGeometry width="30" height="39" as="geometry">
            <mxRectangle width="30" height="39" as="alternateBounds" />
          </mxGeometry>
        </mxCell>
        <mxCell id="8AV7zO76IVfP4mI7Q1g9-80" value="product_key" style="shape=partialRectangle;connectable=0;fillColor=none;top=0;left=0;bottom=0;right=0;align=left;spacingLeft=6;fontStyle=5;overflow=hidden;whiteSpace=wrap;html=1;fontSize=16;" parent="8AV7zO76IVfP4mI7Q1g9-78" vertex="1">
          <mxGeometry x="30" width="170" height="39" as="geometry">
            <mxRectangle width="170" height="39" as="alternateBounds" />
          </mxGeometry>
        </mxCell>
        <mxCell id="8AV7zO76IVfP4mI7Q1g9-81" value="" style="shape=tableRow;horizontal=0;startSize=0;swimlaneHead=0;swimlaneBody=0;fillColor=none;collapsible=0;dropTarget=0;points=[[0,0.5],[1,0.5]];portConstraint=eastwest;top=0;left=0;right=0;bottom=0;fontSize=16;" parent="8AV7zO76IVfP4mI7Q1g9-77" vertex="1">
          <mxGeometry y="79" width="200" height="39" as="geometry" />
        </mxCell>
        <mxCell id="8AV7zO76IVfP4mI7Q1g9-82" value="" style="shape=partialRectangle;connectable=0;fillColor=none;top=0;left=0;bottom=0;right=0;editable=1;overflow=hidden;whiteSpace=wrap;html=1;fontSize=16;" parent="8AV7zO76IVfP4mI7Q1g9-81" vertex="1">
          <mxGeometry width="30" height="39" as="geometry">
            <mxRectangle width="30" height="39" as="alternateBounds" />
          </mxGeometry>
        </mxCell>
        <mxCell id="8AV7zO76IVfP4mI7Q1g9-83" value="product_id" style="shape=partialRectangle;connectable=0;fillColor=none;top=0;left=0;bottom=0;right=0;align=left;spacingLeft=6;overflow=hidden;whiteSpace=wrap;html=1;fontSize=16;" parent="8AV7zO76IVfP4mI7Q1g9-81" vertex="1">
          <mxGeometry x="30" width="170" height="39" as="geometry">
            <mxRectangle width="170" height="39" as="alternateBounds" />
          </mxGeometry>
        </mxCell>
        <mxCell id="8AV7zO76IVfP4mI7Q1g9-84" value="" style="shape=tableRow;horizontal=0;startSize=0;swimlaneHead=0;swimlaneBody=0;fillColor=none;collapsible=0;dropTarget=0;points=[[0,0.5],[1,0.5]];portConstraint=eastwest;top=0;left=0;right=0;bottom=0;fontSize=16;" parent="8AV7zO76IVfP4mI7Q1g9-77" vertex="1">
          <mxGeometry y="118" width="200" height="39" as="geometry" />
        </mxCell>
        <mxCell id="8AV7zO76IVfP4mI7Q1g9-85" value="" style="shape=partialRectangle;connectable=0;fillColor=none;top=0;left=0;bottom=0;right=0;editable=1;overflow=hidden;whiteSpace=wrap;html=1;fontSize=16;" parent="8AV7zO76IVfP4mI7Q1g9-84" vertex="1">
          <mxGeometry width="30" height="39" as="geometry">
            <mxRectangle width="30" height="39" as="alternateBounds" />
          </mxGeometry>
        </mxCell>
        <mxCell id="8AV7zO76IVfP4mI7Q1g9-86" value="product_number" style="shape=partialRectangle;connectable=0;fillColor=none;top=0;left=0;bottom=0;right=0;align=left;spacingLeft=6;overflow=hidden;whiteSpace=wrap;html=1;fontSize=16;" parent="8AV7zO76IVfP4mI7Q1g9-84" vertex="1">
          <mxGeometry x="30" width="170" height="39" as="geometry">
            <mxRectangle width="170" height="39" as="alternateBounds" />
          </mxGeometry>
        </mxCell>
        <mxCell id="8AV7zO76IVfP4mI7Q1g9-87" value="" style="shape=tableRow;horizontal=0;startSize=0;swimlaneHead=0;swimlaneBody=0;fillColor=none;collapsible=0;dropTarget=0;points=[[0,0.5],[1,0.5]];portConstraint=eastwest;top=0;left=0;right=0;bottom=0;fontSize=16;" parent="8AV7zO76IVfP4mI7Q1g9-77" vertex="1">
          <mxGeometry y="157" width="200" height="39" as="geometry" />
        </mxCell>
        <mxCell id="8AV7zO76IVfP4mI7Q1g9-88" value="" style="shape=partialRectangle;connectable=0;fillColor=none;top=0;left=0;bottom=0;right=0;editable=1;overflow=hidden;whiteSpace=wrap;html=1;fontSize=16;" parent="8AV7zO76IVfP4mI7Q1g9-87" vertex="1">
          <mxGeometry width="30" height="39" as="geometry">
            <mxRectangle width="30" height="39" as="alternateBounds" />
          </mxGeometry>
        </mxCell>
        <mxCell id="8AV7zO76IVfP4mI7Q1g9-89" value="product_name" style="shape=partialRectangle;connectable=0;fillColor=none;top=0;left=0;bottom=0;right=0;align=left;spacingLeft=6;overflow=hidden;whiteSpace=wrap;html=1;fontSize=16;" parent="8AV7zO76IVfP4mI7Q1g9-87" vertex="1">
          <mxGeometry x="30" width="170" height="39" as="geometry">
            <mxRectangle width="170" height="39" as="alternateBounds" />
          </mxGeometry>
        </mxCell>
        <mxCell id="8AV7zO76IVfP4mI7Q1g9-90" style="shape=tableRow;horizontal=0;startSize=0;swimlaneHead=0;swimlaneBody=0;fillColor=none;collapsible=0;dropTarget=0;points=[[0,0.5],[1,0.5]];portConstraint=eastwest;top=0;left=0;right=0;bottom=0;fontSize=16;" parent="8AV7zO76IVfP4mI7Q1g9-77" vertex="1">
          <mxGeometry y="196" width="200" height="39" as="geometry" />
        </mxCell>
        <mxCell id="8AV7zO76IVfP4mI7Q1g9-91" style="shape=partialRectangle;connectable=0;fillColor=none;top=0;left=0;bottom=0;right=0;editable=1;overflow=hidden;whiteSpace=wrap;html=1;fontSize=16;" parent="8AV7zO76IVfP4mI7Q1g9-90" vertex="1">
          <mxGeometry width="30" height="39" as="geometry">
            <mxRectangle width="30" height="39" as="alternateBounds" />
          </mxGeometry>
        </mxCell>
        <mxCell id="8AV7zO76IVfP4mI7Q1g9-92" value="category_id" style="shape=partialRectangle;connectable=0;fillColor=none;top=0;left=0;bottom=0;right=0;align=left;spacingLeft=6;overflow=hidden;whiteSpace=wrap;html=1;fontSize=16;" parent="8AV7zO76IVfP4mI7Q1g9-90" vertex="1">
          <mxGeometry x="30" width="170" height="39" as="geometry">
            <mxRectangle width="170" height="39" as="alternateBounds" />
          </mxGeometry>
        </mxCell>
        <mxCell id="8AV7zO76IVfP4mI7Q1g9-93" style="shape=tableRow;horizontal=0;startSize=0;swimlaneHead=0;swimlaneBody=0;fillColor=none;collapsible=0;dropTarget=0;points=[[0,0.5],[1,0.5]];portConstraint=eastwest;top=0;left=0;right=0;bottom=0;fontSize=16;" parent="8AV7zO76IVfP4mI7Q1g9-77" vertex="1">
          <mxGeometry y="235" width="200" height="39" as="geometry" />
        </mxCell>
        <mxCell id="8AV7zO76IVfP4mI7Q1g9-94" style="shape=partialRectangle;connectable=0;fillColor=none;top=0;left=0;bottom=0;right=0;editable=1;overflow=hidden;whiteSpace=wrap;html=1;fontSize=16;" parent="8AV7zO76IVfP4mI7Q1g9-93" vertex="1">
          <mxGeometry width="30" height="39" as="geometry">
            <mxRectangle width="30" height="39" as="alternateBounds" />
          </mxGeometry>
        </mxCell>
        <mxCell id="8AV7zO76IVfP4mI7Q1g9-95" value="category" style="shape=partialRectangle;connectable=0;fillColor=none;top=0;left=0;bottom=0;right=0;align=left;spacingLeft=6;overflow=hidden;whiteSpace=wrap;html=1;fontSize=16;" parent="8AV7zO76IVfP4mI7Q1g9-93" vertex="1">
          <mxGeometry x="30" width="170" height="39" as="geometry">
            <mxRectangle width="170" height="39" as="alternateBounds" />
          </mxGeometry>
        </mxCell>
        <mxCell id="8AV7zO76IVfP4mI7Q1g9-96" style="shape=tableRow;horizontal=0;startSize=0;swimlaneHead=0;swimlaneBody=0;fillColor=none;collapsible=0;dropTarget=0;points=[[0,0.5],[1,0.5]];portConstraint=eastwest;top=0;left=0;right=0;bottom=0;fontSize=16;" parent="8AV7zO76IVfP4mI7Q1g9-77" vertex="1">
          <mxGeometry y="274" width="200" height="39" as="geometry" />
        </mxCell>
        <mxCell id="8AV7zO76IVfP4mI7Q1g9-97" style="shape=partialRectangle;connectable=0;fillColor=none;top=0;left=0;bottom=0;right=0;editable=1;overflow=hidden;whiteSpace=wrap;html=1;fontSize=16;" parent="8AV7zO76IVfP4mI7Q1g9-96" vertex="1">
          <mxGeometry width="30" height="39" as="geometry">
            <mxRectangle width="30" height="39" as="alternateBounds" />
          </mxGeometry>
        </mxCell>
        <mxCell id="8AV7zO76IVfP4mI7Q1g9-98" value="subcategory" style="shape=partialRectangle;connectable=0;fillColor=none;top=0;left=0;bottom=0;right=0;align=left;spacingLeft=6;overflow=hidden;whiteSpace=wrap;html=1;fontSize=16;" parent="8AV7zO76IVfP4mI7Q1g9-96" vertex="1">
          <mxGeometry x="30" width="170" height="39" as="geometry">
            <mxRectangle width="170" height="39" as="alternateBounds" />
          </mxGeometry>
        </mxCell>
        <mxCell id="8AV7zO76IVfP4mI7Q1g9-99" style="shape=tableRow;horizontal=0;startSize=0;swimlaneHead=0;swimlaneBody=0;fillColor=none;collapsible=0;dropTarget=0;points=[[0,0.5],[1,0.5]];portConstraint=eastwest;top=0;left=0;right=0;bottom=0;fontSize=16;" parent="8AV7zO76IVfP4mI7Q1g9-77" vertex="1">
          <mxGeometry y="313" width="200" height="39" as="geometry" />
        </mxCell>
        <mxCell id="8AV7zO76IVfP4mI7Q1g9-100" style="shape=partialRectangle;connectable=0;fillColor=none;top=0;left=0;bottom=0;right=0;editable=1;overflow=hidden;whiteSpace=wrap;html=1;fontSize=16;" parent="8AV7zO76IVfP4mI7Q1g9-99" vertex="1">
          <mxGeometry width="30" height="39" as="geometry">
            <mxRectangle width="30" height="39" as="alternateBounds" />
          </mxGeometry>
        </mxCell>
        <mxCell id="8AV7zO76IVfP4mI7Q1g9-101" value="maintenance" style="shape=partialRectangle;connectable=0;fillColor=none;top=0;left=0;bottom=0;right=0;align=left;spacingLeft=6;overflow=hidden;whiteSpace=wrap;html=1;fontSize=16;" parent="8AV7zO76IVfP4mI7Q1g9-99" vertex="1">
          <mxGeometry x="30" width="170" height="39" as="geometry">
            <mxRectangle width="170" height="39" as="alternateBounds" />
          </mxGeometry>
        </mxCell>
        <mxCell id="8AV7zO76IVfP4mI7Q1g9-102" style="shape=tableRow;horizontal=0;startSize=0;swimlaneHead=0;swimlaneBody=0;fillColor=none;collapsible=0;dropTarget=0;points=[[0,0.5],[1,0.5]];portConstraint=eastwest;top=0;left=0;right=0;bottom=0;fontSize=16;" parent="8AV7zO76IVfP4mI7Q1g9-77" vertex="1">
          <mxGeometry y="352" width="200" height="39" as="geometry" />
        </mxCell>
        <mxCell id="8AV7zO76IVfP4mI7Q1g9-103" style="shape=partialRectangle;connectable=0;fillColor=none;top=0;left=0;bottom=0;right=0;editable=1;overflow=hidden;whiteSpace=wrap;html=1;fontSize=16;" parent="8AV7zO76IVfP4mI7Q1g9-102" vertex="1">
          <mxGeometry width="30" height="39" as="geometry">
            <mxRectangle width="30" height="39" as="alternateBounds" />
          </mxGeometry>
        </mxCell>
        <mxCell id="8AV7zO76IVfP4mI7Q1g9-104" value="cost" style="shape=partialRectangle;connectable=0;fillColor=none;top=0;left=0;bottom=0;right=0;align=left;spacingLeft=6;overflow=hidden;whiteSpace=wrap;html=1;fontSize=16;" parent="8AV7zO76IVfP4mI7Q1g9-102" vertex="1">
          <mxGeometry x="30" width="170" height="39" as="geometry">
            <mxRectangle width="170" height="39" as="alternateBounds" />
          </mxGeometry>
        </mxCell>
        <mxCell id="8AV7zO76IVfP4mI7Q1g9-105" style="shape=tableRow;horizontal=0;startSize=0;swimlaneHead=0;swimlaneBody=0;fillColor=none;collapsible=0;dropTarget=0;points=[[0,0.5],[1,0.5]];portConstraint=eastwest;top=0;left=0;right=0;bottom=0;fontSize=16;" parent="8AV7zO76IVfP4mI7Q1g9-77" vertex="1">
          <mxGeometry y="391" width="200" height="39" as="geometry" />
        </mxCell>
        <mxCell id="8AV7zO76IVfP4mI7Q1g9-106" style="shape=partialRectangle;connectable=0;fillColor=none;top=0;left=0;bottom=0;right=0;editable=1;overflow=hidden;whiteSpace=wrap;html=1;fontSize=16;" parent="8AV7zO76IVfP4mI7Q1g9-105" vertex="1">
          <mxGeometry width="30" height="39" as="geometry">
            <mxRectangle width="30" height="39" as="alternateBounds" />
          </mxGeometry>
        </mxCell>
        <mxCell id="8AV7zO76IVfP4mI7Q1g9-107" value="product_line" style="shape=partialRectangle;connectable=0;fillColor=none;top=0;left=0;bottom=0;right=0;align=left;spacingLeft=6;overflow=hidden;whiteSpace=wrap;html=1;fontSize=16;" parent="8AV7zO76IVfP4mI7Q1g9-105" vertex="1">
          <mxGeometry x="30" width="170" height="39" as="geometry">
            <mxRectangle width="170" height="39" as="alternateBounds" />
          </mxGeometry>
        </mxCell>
        <mxCell id="8AV7zO76IVfP4mI7Q1g9-108" style="shape=tableRow;horizontal=0;startSize=0;swimlaneHead=0;swimlaneBody=0;fillColor=none;collapsible=0;dropTarget=0;points=[[0,0.5],[1,0.5]];portConstraint=eastwest;top=0;left=0;right=0;bottom=0;fontSize=16;" parent="8AV7zO76IVfP4mI7Q1g9-77" vertex="1">
          <mxGeometry y="430" width="200" height="39" as="geometry" />
        </mxCell>
        <mxCell id="8AV7zO76IVfP4mI7Q1g9-109" style="shape=partialRectangle;connectable=0;fillColor=none;top=0;left=0;bottom=0;right=0;editable=1;overflow=hidden;whiteSpace=wrap;html=1;fontSize=16;" parent="8AV7zO76IVfP4mI7Q1g9-108" vertex="1">
          <mxGeometry width="30" height="39" as="geometry">
            <mxRectangle width="30" height="39" as="alternateBounds" />
          </mxGeometry>
        </mxCell>
        <mxCell id="8AV7zO76IVfP4mI7Q1g9-110" value="start_date" style="shape=partialRectangle;connectable=0;fillColor=none;top=0;left=0;bottom=0;right=0;align=left;spacingLeft=6;overflow=hidden;whiteSpace=wrap;html=1;fontSize=16;" parent="8AV7zO76IVfP4mI7Q1g9-108" vertex="1">
          <mxGeometry x="30" width="170" height="39" as="geometry">
            <mxRectangle width="170" height="39" as="alternateBounds" />
          </mxGeometry>
        </mxCell>
        <mxCell id="8AV7zO76IVfP4mI7Q1g9-111" value="" style="edgeStyle=entityRelationEdgeStyle;fontSize=12;html=1;endArrow=ERzeroToMany;startArrow=ERmandOne;rounded=0;exitX=1;exitY=0.5;exitDx=0;exitDy=0;entryX=0;entryY=0.5;entryDx=0;entryDy=0;" parent="1" source="8AV7zO76IVfP4mI7Q1g9-13" target="8AV7zO76IVfP4mI7Q1g9-53" edge="1">
          <mxGeometry width="100" height="100" relative="1" as="geometry">
            <mxPoint x="380" y="280" as="sourcePoint" />
            <mxPoint x="480" y="180" as="targetPoint" />
          </mxGeometry>
        </mxCell>
        <mxCell id="8AV7zO76IVfP4mI7Q1g9-112" value="" style="edgeStyle=entityRelationEdgeStyle;fontSize=12;html=1;endArrow=ERzeroToMany;startArrow=ERmandOne;rounded=0;entryX=1;entryY=0.5;entryDx=0;entryDy=0;exitX=0;exitY=0.5;exitDx=0;exitDy=0;" parent="1" source="8AV7zO76IVfP4mI7Q1g9-78" target="8AV7zO76IVfP4mI7Q1g9-50" edge="1">
          <mxGeometry width="100" height="100" relative="1" as="geometry">
            <mxPoint x="720" y="330" as="sourcePoint" />
            <mxPoint x="820" y="230" as="targetPoint" />
          </mxGeometry>
        </mxCell>
        <mxCell id="8AV7zO76IVfP4mI7Q1g9-113" value="&lt;font style=&quot;font-size: 18px;&quot;&gt;&lt;b style=&quot;&quot;&gt;&lt;u style=&quot;&quot;&gt;Sales Calculation&lt;/u&gt;&lt;/b&gt;&lt;/font&gt;&lt;div&gt;&lt;font style=&quot;font-size: 15px;&quot;&gt;&lt;br&gt;&lt;/font&gt;&lt;div&gt;&lt;font style=&quot;font-size: 15px;&quot;&gt;Sales = Quantity * Price&lt;/font&gt;&lt;/div&gt;&lt;/div&gt;" style="text;html=1;align=left;verticalAlign=middle;whiteSpace=wrap;rounded=0;" parent="1" vertex="1">
          <mxGeometry x="630" y="509" width="185" height="70" as="geometry" />
        </mxCell>
        <mxCell id="8AV7zO76IVfP4mI7Q1g9-114" value="" style="endArrow=none;dashed=1;html=1;rounded=0;entryX=0;entryY=0;entryDx=0;entryDy=0;" parent="1" source="8AV7zO76IVfP4mI7Q1g9-65" target="8AV7zO76IVfP4mI7Q1g9-113" edge="1">
          <mxGeometry width="50" height="50" relative="1" as="geometry">
            <mxPoint x="500" y="590" as="sourcePoint" />
            <mxPoint x="550" y="540" as="targetPoint" />
          </mxGeometry>
        </mxCell>
        <mxCell id="ibpPMps1fpzdj5ig0-ML-1" value="&lt;font style=&quot;font-size: 18px;&quot;&gt;&lt;b style=&quot;&quot;&gt;&lt;u style=&quot;&quot;&gt;maintenance&lt;/u&gt;&lt;/b&gt;&lt;/font&gt;&lt;div&gt;&lt;div&gt;- Yes&lt;/div&gt;&lt;/div&gt;&lt;div&gt;- No&lt;/div&gt;" style="text;html=1;align=left;verticalAlign=middle;whiteSpace=wrap;rounded=0;" vertex="1" parent="1">
          <mxGeometry x="1060" y="470" width="185" height="70" as="geometry" />
        </mxCell>
        <mxCell id="ibpPMps1fpzdj5ig0-ML-2" value="" style="endArrow=none;dashed=1;html=1;rounded=0;entryX=0;entryY=0;entryDx=0;entryDy=0;exitX=1;exitY=0.5;exitDx=0;exitDy=0;" edge="1" parent="1" source="8AV7zO76IVfP4mI7Q1g9-99" target="ibpPMps1fpzdj5ig0-ML-1">
          <mxGeometry width="50" height="50" relative="1" as="geometry">
            <mxPoint x="910" y="420" as="sourcePoint" />
            <mxPoint x="960" y="370" as="targetPoint" />
          </mxGeometry>
        </mxCell>
      </root>
    </mxGraphModel>
  </diagram>
</mxfile>
